<?xml version="1.0" encoding="UTF-8"?>
<svg id="_レイヤー_2" data-name="レイヤー 2" xmlns="http://www.w3.org/2000/svg" viewBox="0 0 467 29.09">
  <defs>
    <style>
      .cls-1 {
        fill: #1c2345;
        stroke-width: 0px;
      }
    </style>
  </defs>
  <g id="_レイヤー_1-2" data-name="レイヤー 1">
    <g>
      <path class="cls-1" d="m21.59,2.06c.49-.49.96-.84,1.4-1.05.05-.02.12-.03.19-.03.24,0,.45.21.45.45,0,.19-.12.35-.28.42-.12.05-.24.12-.37.21,3.27.19,5.49,1.89,5.49,4.52,0,4.87-6.39,9.47-13.29,9.47-.12,0-.24,0-.37-.02,1.19,1.94,2.6,3.9,5.17,3.9,3.42,0,9.15-2.97,13.98-7.25.07-.09.17-.12.3-.12.24,0,.45.21.45.45,0,.14-.05.26-.16.33-4.98,4.44-10.92,7.49-14.57,7.49-3.34,0-5.03-2.8-6.31-4.89l-.09-.16s-.07-.02-.12-.03c-3,4.38-6.32,8.12-9.73,8.12-1.31,0-2.71-.7-3.63-1.82-.07-.09-.1-.19-.1-.3,0-.24.21-.45.45-.45.14,0,.26.07.35.16.77.94,1.89,1.5,2.93,1.5,3,0,6.04-3.42,8.91-7.62-.73-.45-1.22-1.1-1.22-1.8,0-.4.26-.72.65-.72.28,0,.58.17.84.44.21.21.42.47.63.75.96-1.45,1.89-2.95,2.78-4.4,1.57-2.53,3.06-4.93,4.4-6.59-5.43.61-9.5,4.24-12.02,7.88-.63,1.22-1.03,2.59-1.59,2.59-.21,0-.52-.14-.58-.4-.05-.24.03-.49.16-.75.24-.52.61-1.05,1.45-2.17,2.83-3.93,7.42-7.83,13.45-8.12Zm5.97,4.52c0-2.24-2.11-3.63-5.22-3.63h-.37c-1.4,1.48-3.04,4.16-4.87,7.14-.96,1.55-1.97,3.18-3.02,4.75.03.07.07.12.1.17.31.07.65.12,1,.12,6.39,0,12.39-4.23,12.39-8.56Z"/>
      <path class="cls-1" d="m32.43,16.67c0-1.75,1.85-4.82,2.99-6.24.07-.1.21-.17.35-.17.24,0,.45.21.45.45,0,.1-.03.21-.1.28-1.48,1.87-2.78,4.49-2.78,5.68,0,.91.35,1.26,1.27,1.26,1.89,0,4.93-1.85,8.91-5.4.07-.07.17-.12.3-.12.24,0,.45.21.45.45,0,.14-.05.26-.16.33-4.16,3.74-7.34,5.64-9.5,5.64-1.41,0-2.18-.75-2.18-2.17Zm4.59-8.63c0-.1.05-.21.1-.28.17-.23.49-.56.68-.86.07-.1.21-.17.35-.17.24,0,.45.21.45.45,0,.1-.03.21-.1.3-.21.26-.49.61-.66.84-.09.1-.23.17-.37.17-.24,0-.45-.21-.45-.45Z"/>
      <path class="cls-1" d="m41.44,17.24c0-1.57.87-3.42,2.15-4.63.21-.21.38-.24.47-.14l.12.14c.37-1.33,1.38-2.24,2.64-2.24,1.14,0,1.83.77,1.83,2.01,0,1.31-.7,2.88-1.68,4.18.21.03.44.05.68.05,3.51,0,6.41-3.18,7.04-4.04.09-.1.21-.17.37-.17.24,0,.45.21.45.45,0,.1-.03.19-.09.28-.66.87-3.86,4.38-7.77,4.38-.49,0-.93-.07-1.33-.19-.98,1.05-2.13,1.78-3.11,1.78-1.1,0-1.78-.72-1.78-1.87Zm4.04-.33c-.93-.63-1.45-1.73-1.45-3.14,0-.1,0-.21.02-.31-1.01,1.03-1.69,2.53-1.69,3.79,0,.66.28.96.87.96.68,0,1.5-.52,2.25-1.29Zm2.27-4.52c0-.75-.31-1.1-.93-1.1-1.08,0-1.89,1.07-1.89,2.48,0,1.15.4,1.99,1.15,2.45.94-1.17,1.66-2.67,1.66-3.83Z"/>
      <path class="cls-1" d="m66.06,19.18c-.89-1.78-1.73-3.46-2.81-4.65-.19.03-.38.09-.56.12-2.13,3.65-4.38,7.18-6.45,9.9-.09.12-.21.19-.37.19-.24,0-.45-.21-.45-.45,0-.1.03-.19.09-.28,1.94-2.55,4.02-5.8,6.03-9.19-.52.05-1.01.09-1.5.09-1.54,0-2.78-.58-2.78-1.54,0-.89,1.14-1.41,2.46-1.41,1.15,0,2.13.33,2.95.89,1.82-3.2,3.53-6.46,4.93-9.35-3.56,3.04-7.93,4.56-11.65,4.07-.42-.05-.82-.12-1.1-.19-.33-.09-.47-.26-.47-.47,0-.24.17-.54.54-.54.26,0,.77.21,1.12.31,3.98.56,8.8-1.47,12.4-5.21.19-.21.42-.23.65-.07l.05.02c.23.16.28.37.17.63-1.55,3.34-3.65,7.39-5.92,11.35.05.03.09.09.14.12,6.5-1.61,14.5-7.06,17.01-12.09.07-.16.23-.26.4-.26.24,0,.45.21.45.45,0,.07-.02.14-.05.21-2.57,5.15-10.46,10.62-17.12,12.44,1.03,1.28,1.85,2.9,2.64,4.49,1.75,3.51,3.42,6.87,7.21,6.87,1.89,0,2.83-.61,3.49-.98.07-.05.14-.07.23-.07.24,0,.45.21.45.45,0,.17-.09.31-.24.4-.63.37-1.78,1.1-3.93,1.1-4.37,0-6.27-3.86-8.02-7.37Zm-3.95-5.35l.1-.19c-.7-.49-1.52-.77-2.5-.77-.82,0-1.55.3-1.55.51,0,.28.84.63,1.87.63.66,0,1.36-.07,2.08-.17Z"/>
      <path class="cls-1" d="m72.75,17.24c0-1.57.87-3.42,2.15-4.63.21-.21.38-.24.47-.14l.12.14c.37-1.33,1.38-2.24,2.64-2.24,1.14,0,1.83.77,1.83,2.01,0,1.31-.7,2.88-1.68,4.18.21.03.44.05.68.05,3.51,0,6.41-3.18,7.04-4.04.09-.1.21-.17.37-.17.24,0,.45.21.45.45,0,.1-.03.19-.09.28-.66.87-3.86,4.38-7.77,4.38-.49,0-.93-.07-1.33-.19-.98,1.05-2.13,1.78-3.11,1.78-1.1,0-1.78-.72-1.78-1.87Zm4.04-.33c-.93-.63-1.45-1.73-1.45-3.14,0-.1,0-.21.02-.31-1.01,1.03-1.69,2.53-1.69,3.79,0,.66.28.96.87.96.68,0,1.5-.52,2.25-1.29Zm2.27-4.52c0-.75-.31-1.1-.93-1.1-1.08,0-1.89,1.07-1.89,2.48,0,1.15.4,1.99,1.15,2.45.94-1.17,1.66-2.67,1.66-3.83Z"/>
      <path class="cls-1" d="m80.42,22.83c1.68-4.02,5.73-10.66,9.14-15.58-2.81.38-5.5.87-7.55,1.33-.03.02-.07.02-.1.02-.24,0-.45-.21-.45-.45,0-.23.16-.4.37-.44,2.24-.51,5.29-1.07,8.46-1.45,1.27-1.55,2.6-3.42,3.53-4.16.09-.07.19-.12.31-.12.24,0,.45.21.45.45,0,.12-.05.24-.14.33-.73.73-1.9,2.15-2.95,3.35,2.97-.31,5.96-.44,8.39-.21.24.02.42.21.42.45s-.21.45-.45.45h-.05c-2.59-.24-5.83-.07-9.01.3-3.2,4.56-7.16,10.94-9.1,15.15.24.09.31.3.19.58-.28.65-.7,1.29-1.12,1.29-.61,0-.59-.63-.31-1.29Z"/>
      <path class="cls-1" d="m90.06,17.52c0-2.76,4.58-7.34,7.37-7.34.98,0,1.8.58,2.15,1.43.31-.44.68-.82,1-1.22.07-.09.19-.16.33-.16.24,0,.45.21.45.45,0,.12-.05.23-.12.31-1.33,1.68-2.76,4.19-2.76,5.47,0,.91.35,1.26,1.28,1.26,1.89,0,5.61-1.85,8.89-5.4.09-.09.19-.12.31-.12.24,0,.45.21.45.45,0,.14-.07.26-.16.35-3.95,3.95-7.34,5.62-9.5,5.62-1.41,0-2.18-.75-2.18-2.17,0-.47.14-1.07.19-1.28.12-.42-.16-.37-.38-.16-2.93,2.69-4.7,3.83-5.96,3.83-.89,0-1.36-.45-1.36-1.35Zm8.8-5.17c-.1-.73-.68-1.26-1.43-1.26-2.29,0-6.46,4.16-6.46,6.43,0,.37.07.44.45.44,1.22,0,3.53-1.73,7.44-5.61Z"/>
      <path class="cls-1" d="m110.44,9.99c.21-.24.49-.4.77-.4.23,0,.45.14.45.38,0,.54-.89,1.36-1.64,2.11-1.29,1.76-2.34,3.37-3,4.58-.31.58-.21.89.42.3.31-.3.66-.65,1.08-1.05,3.97-3.97,6.03-5.54,7.49-5.54.66,0,1.05.44,1.05,1.15s-.38,1.85-.77,2.9c-.4,1.12-.79,2.22-.79,2.92,0,.42.1.52.42.52,1.99,0,5.15-2.71,8.12-5.35.07-.07.17-.12.3-.12.24,0,.45.21.45.45,0,.14-.05.26-.16.33-2.97,2.67-6.38,5.59-8.72,5.59-.84,0-1.33-.52-1.33-1.43s.45-2.11.84-3.23c.37-1.05.72-1.99.72-2.59,0-.26-.16-.3-.33-.3-.96,0-2.9,1.57-6.67,5.33-1.64,1.62-2.59,2.55-3.13,2.55-.4,0-.65-.3-.65-.7,0-.94,1.54-3.6,3.83-6.73.51-.73.89-1.28,1.24-1.69Z"/>
      <path class="cls-1" d="m122.51,16.67c0-1.75,1.85-4.82,2.99-6.24.07-.1.21-.17.35-.17.24,0,.45.21.45.45,0,.1-.03.21-.1.28-1.48,1.87-2.78,4.49-2.78,5.68,0,.91.35,1.26,1.27,1.26,1.89,0,4.93-1.85,8.91-5.4.07-.07.17-.12.3-.12.24,0,.45.21.45.45,0,.14-.05.26-.16.33-4.16,3.74-7.34,5.64-9.5,5.64-1.41,0-2.18-.75-2.18-2.17Zm4.59-8.63c0-.1.05-.21.1-.28.17-.23.49-.56.68-.86.07-.1.21-.17.35-.17.24,0,.45.21.45.45,0,.1-.03.21-.1.3-.21.26-.49.61-.66.84-.09.1-.23.17-.37.17-.24,0-.45-.21-.45-.45Z"/>
      <path class="cls-1" d="m170.22,6.64c.23-.7.56-1.36.98-1.41.61-.07.63.54.45,1.26-.89,3.32-5.31,13.08-9.7,13.08-2.01,0-2.78-1.5-2.78-3.3,0-1.24.35-3.04.87-4.93-4.38,5.76-10.46,12.26-13.92,12.26-1.52,0-2.46-1.05-2.46-2.71,0-6.25,7.83-20.89,11.2-20.89.24,0,.45.21.45.45s-.21.45-.45.45c-2.55,0-10.29,13.64-10.29,19.98,0,1.15.56,1.8,1.55,1.8,3.58,0,10.48-7.95,14.69-13.8,1.22-3.58,2.85-6.83,3.76-6.83.45,0,.72.33.72.82,0,.72-1.5,3.28-3.7,6.38-.84,2.38-1.5,4.96-1.5,7,0,1.31.38,2.39,1.87,2.39,3.46,0,7.3-7.77,8.54-11.37-.28-.16-.37-.37-.28-.65Z"/>
      <path class="cls-1" d="m172.09,16.47c0-2.67,3.06-6.1,5.49-6.1.98,0,1.59.54,1.59,1.41s-1.9,3.2-5.66,2.83c-.31.63-.51,1.28-.51,1.85,0,.93.4,1.28,1.54,1.28,2.31,0,7.55-2.66,10.45-5.24.07-.07.17-.1.3-.1.24,0,.45.21.45.45,0,.14-.05.26-.16.35-3.3,2.76-8.51,5.45-11.04,5.45-1.62,0-2.45-.72-2.45-2.18Zm6.17-4.68c0-.35-.19-.51-.68-.51-1.17,0-2.6,1.1-3.55,2.46,2.95.14,4.23-1.41,4.23-1.96Z"/>
      <path class="cls-1" d="m180.62,21.1c0-.05.02-.12.03-.16,1.34-3.16,7.16-13.43,10.94-17.98.51-.61.96-1.08,1.36-1.47.23-.21.52-.31.75-.31.28,0,.47.19.47.44,0,.54-.96,1.21-1.8,1.87-1.66,1.76-3.97,5.36-6.04,8.86-.65,1.12-1.9,3.07-2.06,3.39-.82,1.54.02.49.44-.02.75-.91,1.59-1.83,2.41-2.66,1.54-1.52,3.02-2.69,3.83-2.69s1.26.49,1.26,1.35c0,2.99-3.76,7.34-6.38,7.34-.8,0-1.38-.52-1.59-1.31-1.07,1.31-2.06,2.59-2.79,3.62-.09.12-.21.19-.37.19-.24,0-.45-.21-.45-.45Zm10.67-9.38c0-.37-.07-.44-.35-.44-1.07,0-3.55,2.62-5.87,5.43-.12.84.19,1.43.75,1.43,2.11,0,5.47-3.97,5.47-6.43Z"/>
      <path class="cls-1" d="m193.74,17.71c0-2.78,4.58-7.34,7.37-7.34.8,0,1.35.38,1.59,1.08,1.82-4.63,5.22-10.18,7.81-10.18.77,0,1.24.45,1.24,1.22,0,1.87-4.49,7.13-8.91,11.21-.33,1.07-.51,1.99-.51,2.67,0,1.05.4,1.54,1.28,1.54,1.89,0,4.93-1.85,8.91-5.4.07-.07.17-.12.3-.12.24,0,.45.21.45.45,0,.14-.05.26-.16.33-4.16,3.74-7.34,5.64-9.5,5.64-1.4,0-2.18-.89-2.18-2.45,0-.44.07-.98.21-1.59-2.79,2.45-5.38,4.26-6.59,4.26-.84,0-1.31-.47-1.31-1.35Zm8.35-4.58s.02-.07.03-.1c-.16-.02-.21-.19-.19-.49.05-.86-.23-1.26-.82-1.26-2.29,0-6.46,4.16-6.46,6.43,0,.37.07.44.4.44,1.14,0,4.04-2.22,7.04-5.01Zm8.75-10.64c0-.17-.07-.31-.33-.31-2.18,0-5.35,5.26-7.02,9.63,3.79-3.7,7.35-7.91,7.35-9.31Z"/>
      <path class="cls-1" d="m210.72,16.47c0-2.67,3.06-6.1,5.49-6.1.98,0,1.59.54,1.59,1.41s-1.9,3.2-5.66,2.83c-.31.63-.51,1.28-.51,1.85,0,.93.4,1.28,1.54,1.28,2.31,0,7.55-2.66,10.45-5.24.07-.07.17-.1.3-.1.24,0,.45.21.45.45,0,.14-.05.26-.16.35-3.3,2.76-8.51,5.45-11.04,5.45-1.62,0-2.45-.72-2.45-2.18Zm6.17-4.68c0-.35-.19-.51-.68-.51-1.17,0-2.6,1.1-3.55,2.46,2.95.14,4.23-1.41,4.23-1.96Z"/>
      <path class="cls-1" d="m217.66,23.46c0-1.24,1.17-2.41,4.4-4.23.02-.05.03-.12.05-.19,1.22-5.69,1.82-9.14,4.25-9.14.82,0,1.57.4,2.27,1.19.07.07.1.17.1.3,0,.24-.21.45-.45.45-.14,0-.26-.05-.35-.16-.52-.61-1.01-.87-1.57-.87-1.61,0-2.1,2.52-3.23,7.84,1.26-.68,2.78-1.43,4.59-2.32,2.71-1.31,5.4-2.6,7.28-3.86.09-.03.17-.07.26-.07.24,0,.45.21.45.45,0,.16-.09.3-.21.38-1.96,1.28-4.7,2.6-7.39,3.91-2.18,1.05-3.91,1.94-5.26,2.67-.82,3.37-2.01,4.94-3.81,4.94-.82,0-1.4-.52-1.4-1.31Zm4.11-3c-2.32,1.38-3.18,2.18-3.18,2.93,0,.26.12.54.56.54,1.07,0,1.94-1.12,2.62-3.48Z"/>
      <path class="cls-1" d="m233.41,16.67c0-1.75,1.85-4.82,2.99-6.24.07-.1.21-.17.35-.17.24,0,.45.21.45.45,0,.1-.03.21-.1.28-1.48,1.87-2.78,4.49-2.78,5.68,0,.91.35,1.26,1.27,1.26,1.89,0,4.93-1.85,8.91-5.4.07-.07.17-.12.3-.12.24,0,.45.21.45.45,0,.14-.05.26-.16.33-4.16,3.74-7.34,5.64-9.5,5.64-1.41,0-2.18-.75-2.18-2.17Zm4.59-8.63c0-.1.05-.21.1-.28.17-.23.49-.56.68-.86.07-.1.21-.17.35-.17.24,0,.45.21.45.45,0,.1-.03.21-.1.3-.21.26-.49.61-.66.84-.09.1-.23.17-.37.17-.24,0-.45-.21-.45-.45Z"/>
      <path class="cls-1" d="m234.99,26.92c0-1.94,2.11-2.8,5.19-4.02,1.4-.56,3.06-1.22,4.91-2.11,1.07-1.75,2.06-3.58,2.92-5.26-1.69,1.8-3.81,3.53-5.12,3.53-.89,0-1.36-.47-1.36-1.35,0-2.81,4.33-7.28,7.09-7.28.68,0,1.21.31,1.5.79.35-.75.61-1.31.75-1.61.09-.16.24-.26.42-.26.24,0,.45.21.45.45,0,.07-.02.14-.05.21-.51,1.01-2.52,5.61-5.14,10.03,3.11-1.62,6.69-3.95,10.53-7.51.09-.07.19-.12.31-.12.24,0,.45.21.45.45,0,.14-.05.24-.14.33-4.47,4.14-8.61,6.64-12.07,8.33-2.55,4.04-5.52,7.56-8.18,7.56-1.43,0-2.48-.91-2.48-2.17Zm9.19-4.72c-1.36.61-2.59,1.12-3.67,1.54-3.07,1.22-4.61,1.85-4.61,3.18,0,.73.63,1.26,1.57,1.26,2.1,0,4.51-2.66,6.71-5.97Zm5.19-9.78c.26-.54-.09-1.08-.75-1.08-2.25,0-6.18,4.07-6.18,6.38,0,.37.07.44.45.44,1.29,0,4.75-3.06,6.48-5.73Z"/>
      <path class="cls-1" d="m258.99,9.99c.21-.24.49-.4.77-.4.23,0,.45.14.45.38,0,.54-.89,1.36-1.64,2.11-1.29,1.76-2.34,3.37-3,4.58-.31.58-.21.89.42.3.31-.3.66-.65,1.08-1.05,3.97-3.97,6.03-5.54,7.49-5.54.66,0,1.05.44,1.05,1.15s-.38,1.85-.77,2.9c-.4,1.12-.79,2.22-.79,2.92,0,.42.1.52.42.52,1.99,0,5.15-2.71,8.12-5.35.07-.07.17-.12.3-.12.24,0,.45.21.45.45,0,.14-.05.26-.16.33-2.97,2.67-6.38,5.59-8.72,5.59-.84,0-1.33-.52-1.33-1.43s.45-2.11.84-3.23c.37-1.05.72-1.99.72-2.59,0-.26-.16-.3-.33-.3-.96,0-2.9,1.57-6.67,5.33-1.64,1.62-2.59,2.55-3.13,2.55-.4,0-.65-.3-.65-.7,0-.94,1.54-3.6,3.83-6.73.51-.73.89-1.28,1.24-1.69Z"/>
      <path class="cls-1" d="m270.8,16.47c0-2.67,3.06-6.1,5.49-6.1.98,0,1.59.54,1.59,1.41s-1.9,3.2-5.66,2.83c-.31.63-.51,1.28-.51,1.85,0,.93.4,1.28,1.54,1.28,2.31,0,7.55-2.66,10.45-5.24.07-.07.17-.1.3-.1.24,0,.45.21.45.45,0,.14-.05.26-.16.35-3.3,2.76-8.51,5.45-11.04,5.45-1.62,0-2.45-.72-2.45-2.18Zm6.17-4.68c0-.35-.19-.51-.68-.51-1.17,0-2.6,1.1-3.55,2.46,2.95.14,4.23-1.41,4.23-1.96Z"/>
      <path class="cls-1" d="m281.53,18.15c-.26-.12-.37-.33-.26-.59.82-2.25,3.11-6.17,4.14-7.42.09-.1.21-.17.35-.17.24,0,.45.21.45.45,0,.1-.03.21-.1.28-.49.61-1.31,1.89-2.2,3.46-.4.7-.24.82.33.24,2.34-2.27,4.84-4,5.97-4,.87,0,1.12.68,1.24,1.97.12,1.36.3,1.71.93,1.71,1.5,0,3.13-1.03,3.83-1.5.07-.05.16-.09.26-.09.24,0,.45.21.45.45,0,.16-.09.3-.21.38-.7.47-2.57,1.66-4.33,1.66-1.61,0-1.75-1.54-1.83-2.53-.09-.98-.16-1.15-.33-1.15-1.22,0-5.94,3.6-8.04,6.67-.16.24-.35.3-.61.19l-.03-.02Z"/>
      <path class="cls-1" d="m299.44,26.15c0-.07.02-.12.03-.17.49-1.17,3.62-6.87,5.71-10.67.61-1.12,1.14-2.08,1.48-2.71.07-.14.23-.24.4-.24.24,0,.45.21.45.45,0,.09-.02.16-.05.23-.35.63-.87,1.57-1.5,2.71-.98,1.83-.82,1.62-.35,1.01,3.48-4.45,6.6-6.95,8.59-6.95.98,0,1.55.61,1.55,1.62,0,.87-.35,1.89-.93,2.9,2.85-.65,5.8-1.36,7.51-2.67.07-.05.17-.09.28-.09.24,0,.45.21.45.45,0,.16-.07.28-.19.37-1.94,1.48-5.29,2.25-8.26,2.92-.17.03-.33.07-.49.12-1.48,2.08-3.7,3.86-5.33,3.86-.82,0-1.43-.49-1.43-1.22,0-1.89,2.97-2.71,6.22-3.46.75-1.1,1.26-2.27,1.26-3.18,0-.52-.19-.72-.65-.72-2.64,0-8.87,6.04-13.92,15.65-.07.14-.23.24-.4.24-.24,0-.45-.21-.45-.45Zm13.28-10.39c-3.35.86-4.42,1.47-4.42,2.31,0,.19.16.31.52.31,1.1,0,2.66-1.15,3.9-2.62Z"/>
      <path class="cls-1" d="m319.44,17.24c0-1.57.87-3.42,2.15-4.63.21-.21.38-.24.47-.14l.12.14c.37-1.33,1.38-2.24,2.64-2.24,1.14,0,1.83.77,1.83,2.01,0,1.31-.7,2.88-1.68,4.18.21.03.44.05.68.05,3.51,0,6.41-3.18,7.04-4.04.09-.1.21-.17.37-.17.24,0,.45.21.45.45,0,.1-.03.19-.09.28-.66.87-3.86,4.38-7.77,4.38-.49,0-.93-.07-1.33-.19-.98,1.05-2.13,1.78-3.11,1.78-1.1,0-1.78-.72-1.78-1.87Zm4.04-.33c-.93-.63-1.45-1.73-1.45-3.14,0-.1,0-.21.02-.31-1.01,1.03-1.69,2.53-1.69,3.79,0,.66.28.96.87.96.68,0,1.5-.52,2.25-1.29Zm2.27-4.52c0-.75-.31-1.1-.93-1.1-1.08,0-1.89,1.07-1.89,2.48,0,1.15.4,1.99,1.15,2.45.94-1.17,1.66-2.67,1.66-3.83Z"/>
      <path class="cls-1" d="m330.52,18.15c-.26-.12-.37-.33-.26-.59.82-2.25,3.11-6.17,4.14-7.42.09-.1.21-.17.35-.17.24,0,.45.21.45.45,0,.1-.03.21-.1.28-.49.61-1.31,1.89-2.2,3.46-.4.7-.24.82.33.24,2.34-2.27,4.84-4,5.97-4,.87,0,1.12.68,1.24,1.97.12,1.36.3,1.71.93,1.71,1.5,0,3.13-1.03,3.83-1.5.07-.05.16-.09.26-.09.24,0,.45.21.45.45,0,.16-.09.3-.21.38-.7.47-2.57,1.66-4.33,1.66-1.61,0-1.75-1.54-1.83-2.53-.09-.98-.16-1.15-.33-1.15-1.22,0-5.94,3.6-8.04,6.67-.16.24-.35.3-.61.19l-.03-.02Z"/>
      <path class="cls-1" d="m339.53,22.83c1.68-4.02,5.73-10.66,9.14-15.58-2.81.38-5.5.87-7.55,1.33-.03.02-.07.02-.1.02-.24,0-.45-.21-.45-.45,0-.23.16-.4.37-.44,2.24-.51,5.29-1.07,8.46-1.45,1.27-1.55,2.6-3.42,3.53-4.16.09-.07.19-.12.31-.12.24,0,.45.21.45.45,0,.12-.05.24-.14.33-.73.73-1.9,2.15-2.95,3.35,2.97-.31,5.96-.44,8.39-.21.24.02.42.21.42.45s-.21.45-.45.45h-.05c-2.59-.24-5.83-.07-9.01.3-3.2,4.56-7.16,10.94-9.1,15.15.24.09.31.3.19.58-.28.65-.7,1.29-1.12,1.29-.61,0-.59-.63-.31-1.29Z"/>
      <path class="cls-1" d="m345.54,27.6c0-1.68,1.17-4.86,2.93-8.44-.09-.42-.16-.82-.24-1.17-.02-.03-.02-.09-.02-.12,0-.24.21-.45.45-.45h.02c.23.02.45.02.66.02,3.98-7.58,10.1-16.16,13.4-16.16.72,0,1.21.45,1.21,1.14,0,2.24-4.84,6.97-11.04,10.95-.24.16-.38.24-.4.23l-.02-.02c-.75,1.28-1.5,2.57-2.17,3.86,5.26-.19,8.73-2.52,11.42-4.91.07-.07.17-.12.3-.12.24,0,.45.21.45.45,0,.14-.05.26-.16.33-2.8,2.52-6.69,5.1-12.51,5.15-.14.3-.3.59-.44.89.26,1.61.44,3.53.44,4.49,0,3-1.27,5.36-2.95,5.36-.86,0-1.34-.58-1.34-1.48Zm3.39-3.88c0-.68-.09-1.83-.23-3.02-1.38,2.95-2.25,5.5-2.25,6.9,0,.44.12.58.44.58,1.08,0,2.04-2.01,2.04-4.45Zm14.11-21.31c0-.16-.07-.23-.3-.23-2.17,0-5.85,4.42-9.17,9.66,5.26-3.58,9.47-7.74,9.47-9.43Z"/>
      <path class="cls-1" d="m359.69,17.24c0-1.57.87-3.42,2.15-4.63.21-.21.38-.24.47-.14l.12.14c.37-1.33,1.38-2.24,2.64-2.24,1.14,0,1.83.77,1.83,2.01,0,1.31-.7,2.88-1.68,4.18.21.03.44.05.68.05,3.51,0,6.41-3.18,7.04-4.04.09-.1.21-.17.37-.17.24,0,.45.21.45.45,0,.1-.03.19-.09.28-.66.87-3.86,4.38-7.77,4.38-.49,0-.93-.07-1.33-.19-.98,1.05-2.13,1.78-3.11,1.78-1.1,0-1.78-.72-1.78-1.87Zm4.04-.33c-.93-.63-1.45-1.73-1.45-3.14,0-.1,0-.21.02-.31-1.01,1.03-1.69,2.53-1.69,3.79,0,.66.28.96.87.96.68,0,1.5-.52,2.25-1.29Zm2.27-4.52c0-.75-.31-1.1-.93-1.1-1.08,0-1.89,1.07-1.89,2.48,0,1.15.4,1.99,1.15,2.45.94-1.17,1.66-2.67,1.66-3.83Z"/>
      <path class="cls-1" d="m380.94,1.5c.23-.21.49-.33.73-.33.26,0,.49.21.49.45,0,.54-1,1.21-1.83,1.87-3.9,4.38-9.4,13.84-9.4,16.42,0,.7.3,1.01.94,1.01,3.35,0,11.41-7.14,12.51-8.37.07-.1.19-.16.33-.16.24,0,.45.21.45.45,0,.12-.03.23-.12.3-1.12,1.26-9.47,8.68-13.17,8.68-1.15,0-1.85-.72-1.85-1.92,0-2.83,5.59-12.42,9.56-16.94.51-.61.96-1.08,1.36-1.47Z"/>
      <path class="cls-1" d="m382.81,16.67c0-1.75,1.85-4.82,2.99-6.24.07-.1.21-.17.35-.17.24,0,.45.21.45.45,0,.1-.03.21-.1.28-1.48,1.87-2.78,4.49-2.78,5.68,0,.91.35,1.26,1.27,1.26,1.89,0,4.93-1.85,8.91-5.4.07-.07.17-.12.3-.12.24,0,.45.21.45.45,0,.14-.05.26-.16.33-4.16,3.74-7.34,5.64-9.5,5.64-1.41,0-2.18-.75-2.18-2.17Zm4.59-8.63c0-.1.05-.21.1-.28.17-.23.49-.56.68-.86.07-.1.21-.17.35-.17.24,0,.45.21.45.45,0,.1-.03.21-.1.3-.21.26-.49.61-.66.84-.09.1-.23.17-.37.17-.24,0-.45-.21-.45-.45Z"/>
      <path class="cls-1" d="m391.82,17.24c0-1.57.87-3.42,2.15-4.63.21-.21.38-.24.47-.14l.12.14c.37-1.33,1.38-2.24,2.64-2.24,1.14,0,1.83.77,1.83,2.01,0,1.31-.7,2.88-1.68,4.18.21.03.44.05.68.05,3.51,0,6.41-3.18,7.04-4.04.09-.1.21-.17.37-.17.24,0,.45.21.45.45,0,.1-.03.19-.09.28-.66.87-3.86,4.38-7.77,4.38-.49,0-.93-.07-1.33-.19-.98,1.05-2.13,1.78-3.11,1.78-1.1,0-1.78-.72-1.78-1.87Zm4.04-.33c-.93-.63-1.45-1.73-1.45-3.14,0-.1,0-.21.02-.31-1.01,1.03-1.69,2.53-1.69,3.79,0,.66.28.96.87.96.68,0,1.5-.52,2.25-1.29Zm2.27-4.52c0-.75-.31-1.1-.93-1.1-1.08,0-1.89,1.07-1.89,2.48,0,1.15.4,1.99,1.15,2.45.94-1.17,1.66-2.67,1.66-3.83Z"/>
      <path class="cls-1" d="m399.11,23.46c0-1.24,1.17-2.41,4.4-4.23.02-.05.03-.12.05-.19,1.22-5.69,1.82-9.14,4.25-9.14.82,0,1.57.4,2.27,1.19.07.07.1.17.1.3,0,.24-.21.45-.45.45-.14,0-.26-.05-.35-.16-.52-.61-1.01-.87-1.57-.87-1.61,0-2.1,2.52-3.23,7.84,1.26-.68,2.78-1.43,4.59-2.32,2.71-1.31,5.4-2.6,7.28-3.86.09-.03.17-.07.26-.07.24,0,.45.21.45.45,0,.16-.09.3-.21.38-1.96,1.28-4.7,2.6-7.39,3.91-2.18,1.05-3.91,1.94-5.26,2.67-.82,3.37-2.01,4.94-3.81,4.94-.82,0-1.4-.52-1.4-1.31Zm4.11-3c-2.32,1.38-3.18,2.18-3.18,2.93,0,.26.12.54.56.54,1.07,0,1.94-1.12,2.62-3.48Z"/>
      <path class="cls-1" d="m414.87,16.67c0-1.75,1.85-4.82,2.99-6.24.07-.1.21-.17.35-.17.24,0,.45.21.45.45,0,.1-.03.21-.1.28-1.48,1.87-2.78,4.49-2.78,5.68,0,.91.35,1.26,1.27,1.26,1.89,0,4.93-1.85,8.91-5.4.07-.07.17-.12.3-.12.24,0,.45.21.45.45,0,.14-.05.26-.16.33-4.16,3.74-7.34,5.64-9.5,5.64-1.41,0-2.18-.75-2.18-2.17Zm4.59-8.63c0-.1.05-.21.1-.28.17-.23.49-.56.68-.86.07-.1.21-.17.35-.17.24,0,.45.21.45.45,0,.1-.03.21-.1.3-.21.26-.49.61-.66.84-.09.1-.23.17-.37.17-.24,0-.45-.21-.45-.45Z"/>
      <path class="cls-1" d="m420.28,22.83c1.68-4.02,5.73-10.66,9.14-15.58-2.81.38-5.5.87-7.55,1.33-.03.02-.07.02-.1.02-.24,0-.45-.21-.45-.45,0-.23.16-.4.37-.44,2.24-.51,5.29-1.07,8.46-1.45,1.27-1.55,2.6-3.42,3.53-4.16.09-.07.19-.12.31-.12.24,0,.45.21.45.45,0,.12-.05.24-.14.33-.73.73-1.9,2.15-2.95,3.35,2.97-.31,5.96-.44,8.39-.21.24.02.42.21.42.45s-.21.45-.45.45h-.05c-2.59-.24-5.83-.07-9.01.3-3.2,4.56-7.16,10.94-9.1,15.15.24.09.31.3.19.58-.28.65-.7,1.29-1.12,1.29-.61,0-.59-.63-.31-1.29Z"/>
      <path class="cls-1" d="m431.32,16.47c0-2.67,3.06-6.1,5.49-6.1.98,0,1.59.54,1.59,1.41,0,1.71-2.74,3.44-6.08,3.98-.05.24-.09.47-.09.7,0,1.29.84,1.97,2.48,1.97,1.97,0,6.27-1.35,9.14-5.15.09-.12.23-.21.38-.21.24,0,.45.21.45.45,0,.09-.02.17-.07.26-3.06,4.07-7.79,5.56-9.91,5.56s-3.39-1.07-3.39-2.88Zm6.17-4.68c0-.35-.19-.51-.68-.51-1.45,0-3.34,1.73-4.16,3.51,3.81-.72,4.84-2.41,4.84-3Z"/>
      <path class="cls-1" d="m444.97,18.2c.07-.37.44-.66.8-.66s.59.3.52.66-.44.66-.8.66-.59-.3-.52-.66Z"/>
      <path class="cls-1" d="m455.31,18.2c.07-.37.44-.66.8-.66s.59.3.52.66c-.07.37-.44.66-.8.66s-.59-.3-.52-.66Z"/>
      <path class="cls-1" d="m465.65,18.2c.07-.37.44-.66.8-.66s.59.3.52.66-.44.66-.8.66-.59-.3-.52-.66Z"/>
    </g>
  </g>
</svg>